<svg width="13" height="12" viewBox="0 0 13 12" fill="none" xmlns="http://www.w3.org/2000/svg">
<path d="M2.48975 1.00102C2.48975 0.735537 2.59521 0.480922 2.78294 0.293194C2.97067 0.105465 3.22529 0 3.49077 0H11.499C11.7645 0 12.0191 0.105465 12.2068 0.293194C12.3945 0.480922 12.5 0.735537 12.5 1.00102V9.00922C12.5 9.27471 12.3945 9.52933 12.2068 9.71706C12.0191 9.90478 11.7645 10.0103 11.499 10.0103C11.2335 10.0103 10.9789 9.90478 10.7911 9.71706C10.6034 9.52933 10.498 9.27471 10.498 9.00922V3.4175L2.19645 11.719C2.00765 11.9013 1.75479 12.0022 1.49233 12C1.22986 11.9977 0.978792 11.8924 0.793194 11.7068C0.607596 11.5212 0.502319 11.2701 0.500038 11.0077C0.497757 10.7452 0.598655 10.4923 0.781 10.3035L9.0825 2.00205H3.49077C3.22529 2.00205 2.97067 1.89658 2.78294 1.70886C2.59521 1.52113 2.48975 1.26651 2.48975 1.00102Z" fill="white"/>
</svg>
